<?xml version="1.0" encoding="UTF-8"?>
<svg id="Capa_1" xmlns="http://www.w3.org/2000/svg" version="1.1" viewBox="0 0 542.32 728.13">
  <!-- Generator: Adobe Illustrator 29.1.0, SVG Export Plug-In . SVG Version: 2.1.0 Build 142)  -->
  <defs>
    <style>
      .st0 {
        stroke-width: 1.09px;
      }

      .st0, .st1 {
        fill: none;
        stroke: #010101;
      }

      .st1 {
        stroke-width: 3.26px;
      }

      .st2 {
        fill: #010101;
      }
    </style>
  </defs>
  <polyline class="st0" points="371 47.9 353.74 47.9 313.29 47.9"/>
  <polyline class="st0" points="216.14 47.9 175.69 47.9 130.52 47.9"/>
  <path class="st1" d="M540.69,63.3v647.89h-9.26v10.93H10.89v-10.93H1.63V63.3h9.26v-10.93h204.98c-.01.28-.01.57-.01.85,0,26.97,21.87,48.85,48.86,48.85s48.86-21.87,48.86-48.85c0-.28,0-.57-.01-.85h217.88v10.93h9.26Z"/>
  <line class="st0" x1="4.91" y1="51.51" x2="4.91" y2="723.75"/>
  <line class="st0" x1="542.32" y1="718.78" x2="0" y2="718.78"/>
  <line class="st0" x1="537.41" y1="50.74" x2="537.41" y2="723.67"/>
  <rect class="st2" x="0" y="51.51" width="4.89" height="4.89"/>
  <rect class="st2" x="0" y="718.86" width="4.89" height="4.89"/>
  <rect class="st2" x="537.41" y="718.79" width="4.89" height="4.89"/>
  <rect class="st2" x="537.43" y="50.75" width="4.89" height="4.89"/>
  <polyline class="st0" points="0 56.05 4.89 56.05 4.92 56.05 10.89 56.05 175.69 56.05 175.69 52.37 175.69 47.9 175.69 43.09 216.91 43.09"/>
  <polyline class="st0" points="312.51 43.09 353.74 43.09 353.74 47.9 353.74 52.37 353.74 56.05 531.44 56.05 537.41 56.05 542.32 56.05"/>
  <path class="st1" d="M313.57,53.22c0,26.97-21.87,48.85-48.86,48.85s-48.86-21.87-48.86-48.85c0-.28,0-.57.01-.85.02-1.51.12-3,.27-4.47.18-1.63.44-3.24.77-4.81,4.66-22.12,24.29-38.73,47.8-38.73s43.15,16.61,47.8,38.73c.34,1.57.59,3.18.77,4.81.15,1.47.25,2.96.27,4.47.01.28.01.57.01.85Z"/>
</svg>